<?xml version="1.0" encoding="UTF-8" standalone="no"?>
<svg
   xmlns:dc="http://purl.org/dc/elements/1.1/"
   xmlns:cc="http://creativecommons.org/ns#"
   xmlns:rdf="http://www.w3.org/1999/02/22-rdf-syntax-ns#"
   xmlns:svg="http://www.w3.org/2000/svg"
   xmlns="http://www.w3.org/2000/svg"
   viewBox="0 0 403.93732 135.75067"
   height="135.75067"
   width="403.93732"
   xml:space="preserve"
   id="svg48"
   version="1.1"><metadata
     id="metadata54"><rdf:RDF><cc:Work
         rdf:about=""><dc:format>image/svg+xml</dc:format><dc:type
           rdf:resource="http://purl.org/dc/dcmitype/StillImage" /><dc:title></dc:title></cc:Work></rdf:RDF></metadata><defs
     id="defs52"><clipPath
       id="clipPath64"
       clipPathUnits="userSpaceOnUse"><path
         id="path62"
         d="M 0,101.813 H 302.953 V 0 H 0 Z" /></clipPath></defs><g
     transform="matrix(1.3333333,0,0,-1.3333333,0,135.75067)"
     id="g56"><g
       id="g58"><g
         clip-path="url(#clipPath64)"
         id="g60"><g
           transform="translate(16.1285,12.7147)"
           id="g66"><path
             id="path68"
             style="fill:#ff00aa;fill-opacity:1;fill-rule:nonzero;stroke:none"
             d="m 0,0 -0.185,0.319 -0.017,0.237 -0.033,0.253 c 0.134,2.846 0.437,4.497 0.539,4.868 L 0.354,5.795 0.337,5.997 0.455,6.671 0.473,6.806 V 6.89 c 0,0.067 -0.018,0.084 -0.035,0.084 -0.101,0 -0.084,-0.185 -0.303,-0.37 L 0,6.367 -0.202,6.216 c -0.691,-0.303 -0.893,-0.59 -0.977,-0.59 -0.134,0 -0.218,0.118 -0.218,0.287 0,0.033 0.269,0.488 0.623,0.758 0.118,0.185 0.253,0.32 0.404,0.421 l 0.067,0.151 c 0.253,0.388 0.421,0.674 0.607,0.792 l 0.134,0.102 -0.034,0.084 0.069,0.202 0.235,0.353 0.253,0.337 0.387,0.623 0.489,0.927 0.067,0.051 0.135,0.337 0.27,0.522 0.067,0.117 0.067,0.051 -0.016,0.102 0.067,0.135 0.168,0.151 0.118,0.151 c 0.033,0.068 0.068,0.084 0.117,0.084 0.169,0 0.372,-0.168 0.372,-0.47 0,-0.338 -0.068,-0.692 -0.237,-0.978 L 2.932,10.579 2.696,9.854 2.443,9.08 2.291,8.625 2.241,8.456 2.123,8.137 2.005,7.984 V 7.833 L 1.954,7.614 1.887,7.547 1.854,7.294 1.601,6.385 1.466,5.812 1.365,5.289 1.163,4.498 1.062,4.009 1.028,3.807 0.978,3.757 0.943,3.639 0.961,3.555 C 0.741,2.526 0.674,1.887 0.674,1.65 V 1.583 L 0.708,1.566 0.775,1.785 V 1.954 L 0.809,2.004 0.843,2.139 0.876,2.341 0.894,2.51 0.943,2.628 1.011,2.88 1.112,3.015 1.129,3.234 1.23,3.453 1.264,3.571 1.331,3.757 v 0.184 l 0.135,0.405 0.067,0.287 0.051,0.1 0.017,0.119 0.218,0.757 0.051,0.203 0.219,0.69 0.304,0.708 c 0.151,0.337 0.218,0.572 0.286,0.64 l 0.05,0.085 0.084,0.286 0.119,0.1 v 0.153 c 0.235,0.269 0.455,0.386 0.69,0.386 0.32,0 0.523,-0.218 0.657,-0.657 L 4.448,7.884 4.616,7.631 4.734,7.412 4.818,7.243 4.937,7.024 C 5.021,6.755 5.206,6.62 5.543,6.62 c 0.084,0 0.32,0.27 0.994,0.741 L 6.789,7.345 C 6.823,7.26 6.84,7.192 6.84,7.159 6.84,7.059 6.284,6.081 5.206,5.475 L 4.869,5.441 4.684,5.475 4.448,5.559 4.279,5.728 4.128,5.946 C 4.01,6.064 3.892,6.199 3.757,6.367 L 3.572,6.637 3.387,6.789 3.234,6.722 3.083,6.704 2.982,6.52 2.881,6.435 2.813,6.249 C 2.629,5.693 2.409,5.272 2.309,4.885 L 2.19,4.801 2.156,4.48 1.988,4.009 1.702,3.049 1.618,2.914 1.584,2.611 1.416,1.987 1.298,1.869 V 1.734 L 1.129,1.28 C 1.096,1.195 1.062,1.095 1.062,0.977 L 0.741,0.27 C 0.708,0.202 0.674,0.117 0.657,0.033 c -0.1,-0.135 -0.219,-0.185 -0.32,-0.185 -0.067,0 -0.135,0.05 -0.235,0.134 z" /></g><g
           transform="translate(22.4127,18.9139)"
           id="g70"><path
             id="path72"
             style="fill:#ff00aa;fill-opacity:1;fill-rule:nonzero;stroke:none"
             d="m 0,0 c -0.253,-0.034 -0.32,-0.253 -0.522,-0.32 l -0.152,-0.118 c -0.353,-0.152 -0.421,-0.303 -0.455,-0.303 -0.033,0 -0.067,0 -0.118,0.033 l -0.033,0.051 v 0.034 c 0,0.168 0.218,0.404 0.455,0.825 l 0.117,0.118 c 0.287,0.068 0.253,0.32 0.473,0.505 0.049,0.152 0.117,0.219 0.235,0.27 L 0.32,1.448 0.337,1.601 0.909,2.24 1.011,2.291 1.044,2.358 1.078,2.561 1.229,2.779 1.28,2.813 1.264,2.948 1.196,3.116 c 0,0.017 -0.017,0.034 -0.017,0.051 0,0.202 0.337,0.606 0.826,0.758 L 2.189,4.043 2.392,4.076 H 2.797 L 2.813,4.043 2.932,4.026 3.133,3.941 3.2,3.841 3.353,3.74 3.521,3.689 C 3.908,3.353 4.262,3.2 4.38,2.948 L 4.599,2.712 4.633,2.628 4.616,2.493 4.7,2.392 4.733,2.257 C 4.768,2.105 4.801,1.954 4.801,1.819 4.801,1.061 4.413,0.337 4.211,-0.539 h 0.118 l 0.202,0.151 0.118,0.017 0.59,0.438 0.117,0.017 0.085,0.186 0.253,0.218 0.135,0.068 0.084,0.084 0.186,0.202 0.1,0.067 c 0.523,0.304 0.843,0.455 0.994,0.455 0.068,0 0.135,-0.051 0.135,-0.1 0,-0.035 -0.169,-0.455 -0.32,-0.539 L 6.806,0.505 C 6.638,0.37 6.536,0.186 6.385,0.033 L 6.301,-0.085 6.115,-0.152 6.099,-0.202 5.997,-0.304 5.829,-0.388 5.644,-0.606 5.56,-0.758 5.323,-0.809 5.272,-0.91 C 5.104,-1.078 4.902,-1.213 4.7,-1.314 L 4.515,-1.449 c -0.135,0 -0.203,-0.033 -0.27,-0.135 L 3.992,-1.803 3.857,-1.786 C 3.79,-1.837 3.723,-1.87 3.689,-1.937 L 3.1,-2.005 2.981,-1.954 2.897,-1.972 c -0.168,0.035 -0.235,0.118 -0.235,0.304 0,0.186 0.067,0.404 0.185,0.674 l 0.034,0.135 0.1,0.169 0.018,0.117 0.269,0.893 0.034,0.084 v 0.135 c 0.033,0.286 0.051,0.488 0.051,0.623 0,0.32 -0.085,0.523 -0.337,0.725 L 2.981,2.021 C 2.763,2.055 2.611,2.156 2.426,2.324 L 2.257,2.358 2.14,2.156 1.752,1.937 1.617,1.752 1.516,1.65 1.331,1.432 1.196,1.196 0.825,0.809 0.741,0.69 0.556,0.623 0.505,0.539 0.303,0.286 C 0.253,0.168 0.186,0.101 0.051,0.084 Z" /></g><g
           transform="translate(31.3082,21.5418)"
           id="g74"><path
             id="path76"
             style="fill:#ff00aa;fill-opacity:1;fill-rule:nonzero;stroke:none"
             d="m 0,0 c 0,0.151 0.135,0.219 0.135,0.472 0,0.118 0,0.151 -0.068,0.151 H 0.033 L -0.102,0.539 -0.422,0.253 -0.725,-0.051 -0.994,-0.438 c -0.084,-0.152 -0.118,-0.27 -0.118,-0.354 0,-0.017 0.016,-0.033 0.034,-0.033 0.033,0 0.067,0.016 0.117,0.05 0.085,0.017 0.118,0.017 0.152,0.017 0.034,0 0.068,0.033 0.118,0.084 l 0.085,0.152 0.134,0.134 0.337,0.286 z m -2.376,-2.477 -0.219,-0.151 -0.118,-0.085 -0.168,-0.134 c -0.118,-0.067 -0.236,-0.134 -0.337,-0.202 l -0.101,-0.085 -0.168,-0.084 c -0.068,-0.151 -0.169,-0.185 -0.371,-0.185 -0.101,0 -0.118,0.017 -0.135,0.152 0.017,0.135 0.067,0.202 0.202,0.27 v 0.168 c 0.135,0.134 0.253,0.269 0.353,0.387 l 0.119,0.168 0.118,0.051 c 0.067,0.169 0.185,0.253 0.353,0.32 l 0.051,0.118 0.219,0.134 0.185,0.153 c 0.051,0.033 0.068,0.084 0.068,0.151 v 0.067 l 0.084,0.152 -0.033,0.101 0.049,0.135 c 0.069,0.354 0.153,0.623 0.304,0.842 l 0.118,0.067 -0.034,0.102 c 0.304,0.572 0.741,0.977 1.213,1.398 h 0.085 l 0.067,0.068 0.084,0.016 0.051,0.118 c 0.286,0.236 0.539,0.337 0.859,0.337 0.067,0 0.152,0 0.236,-0.016 L 0.825,2.021 1.162,1.92 1.28,1.769 1.331,1.752 c 0.067,-0.186 0.101,-0.32 0.101,-0.371 0,-0.033 0,-0.084 -0.017,-0.135 L 1.466,1.129 1.448,0.943 1.381,0.725 1.263,0.556 1.229,0.37 C 1.128,0.186 0.993,0.033 0.825,-0.135 L 0.774,-0.236 c -0.302,-0.37 -0.69,-0.707 -1.162,-1.078 l -0.151,-0.05 -0.051,-0.102 -0.286,-0.185 -0.118,-0.152 c -0.051,-0.033 -0.068,-0.067 -0.068,-0.1 0,-0.102 0.034,-0.22 0.119,-0.405 l 0.084,-0.101 0.05,-0.169 c 0.27,-0.202 0.522,-0.303 0.775,-0.303 0.185,0 0.371,0.084 0.59,0.202 l 0.118,0.033 0.286,0.186 0.219,-0.017 0.05,0.135 c 0.051,0.051 0.237,0.202 0.523,0.455 l 0.135,0.068 0.1,0.151 c 0.152,0.101 0.304,0.169 0.472,0.219 0.102,0.169 0.236,0.236 0.388,0.269 l 0.134,0.135 c 0.101,0.034 0.186,0.051 0.219,0.051 0.118,0 0.169,-0.033 0.169,-0.135 0,-0.067 -0.034,-0.151 -0.084,-0.219 L 3.251,-1.449 C 3.149,-1.601 2.981,-1.769 2.779,-1.954 V -2.005 C 2.779,-2.14 2.729,-2.173 2.544,-2.19 2.392,-2.493 2.139,-2.628 1.887,-2.847 L 1.752,-2.965 1.667,-2.999 C 1.55,-3.1 1.432,-3.218 1.348,-3.302 L 1.246,-3.42 1.044,-3.555 C 0.64,-3.908 0.151,-4.094 -0.135,-4.094 H -0.22 l -0.184,0.034 -0.085,-0.05 h -0.236 c -0.421,0 -0.673,0.084 -0.808,0.252 l -0.118,-0.017 -0.203,0.186 -0.1,0.185 -0.085,0.084 c -0.117,0.151 -0.186,0.286 -0.235,0.455 l -0.085,0.337 z" /></g><g
           transform="translate(33.3795,18.8631)"
           id="g78"><path
             id="path80"
             style="fill:#ff00aa;fill-opacity:1;fill-rule:nonzero;stroke:none"
             d="m 0,0 -0.067,0.017 c -0.101,-0.152 -0.219,-0.236 -0.37,-0.252 L -0.606,-0.37 -0.774,-0.472 C -0.858,-0.539 -0.943,-0.59 -1.011,-0.674 l -0.202,-0.067 c -0.117,0.051 -0.168,0.084 -0.168,0.169 0,0.033 0.017,0.1 0.033,0.151 l 0.186,0.151 v 0.152 c 0.135,0.135 0.236,0.253 0.337,0.404 l 0.118,0.169 0.151,0.033 c 0.084,0.153 0.186,0.287 0.321,0.388 l 0.151,0.168 0.623,0.506 0.22,0.135 0.084,0.169 0.371,0.404 0.117,0.033 0.102,0.186 0.774,0.774 0.102,0.034 0.033,0.084 0.674,0.691 c 0.253,0.287 0.422,0.455 0.724,0.455 0.152,0 0.321,-0.068 0.506,-0.152 L 4.363,4.296 4.516,4.11 C 4.565,4.026 4.6,3.942 4.6,3.858 4.6,3.808 4.583,3.757 4.565,3.706 V 3.622 C 4.565,3.403 4.516,3.201 4.448,2.981 L 4.481,2.797 4.414,2.442 C 4.363,2.055 4.263,1.668 4.145,1.247 L 4.043,0.893 3.892,0.404 3.757,0.067 C 3.724,-0.067 3.673,-0.186 3.622,-0.27 L 3.64,-0.421 4.33,0.067 4.498,0.286 c 0.253,0.135 0.404,0.27 0.539,0.472 L 5.189,0.91 c 0.084,0.219 0.303,0.168 0.505,0.337 l 0.202,0.185 c 0.135,0.034 0.219,0.085 0.287,0.152 l 0.219,0.117 h 0.034 c 0.118,0 0.168,-0.067 0.168,-0.135 0,-0.033 -0.017,-0.084 -0.05,-0.151 L 6.537,1.264 C 6.436,1.146 6.284,0.943 6.048,0.708 6.015,0.573 5.947,0.522 5.796,0.506 5.61,0.118 5.374,0.033 5.223,-0.118 L 5.104,-0.202 4.919,-0.437 4.768,-0.505 4.65,-0.674 C 4.431,-0.876 4.195,-1.011 3.942,-1.129 L 3.757,-1.398 3.656,-1.55 3.471,-1.634 C 3.37,-1.819 3.269,-1.903 3.134,-1.903 H 3.066 L 2.797,-2.224 2.427,-2.375 2.274,-2.477 2.14,-2.459 C 2.005,-2.442 1.921,-2.375 1.887,-2.24 l 0.017,0.084 -0.067,0.1 c -0.169,0.371 -0.236,0.759 -0.253,1.18 L 1.635,-0.707 1.5,-0.32 c 0.219,0.387 0.472,0.59 0.674,0.59 0.185,0 0.168,-0.135 0.269,-0.337 h 0.068 c 0.067,0.134 0.117,0.32 0.168,0.522 V 0.758 C 2.746,1.062 2.78,1.331 2.78,1.584 V 1.752 L 2.813,2.105 2.695,2.258 2.477,2.224 2.325,2.055 2.14,1.937 C 1.819,1.668 1.5,1.28 1.028,0.893 L 0.792,0.708 0.624,0.623 0.606,0.539 C 0.455,0.337 0.271,0.168 0.051,0.017 Z" /></g><g
           transform="translate(41.3317,21.5418)"
           id="g82"><path
             id="path84"
             style="fill:#ff00aa;fill-opacity:1;fill-rule:nonzero;stroke:none"
             d="m 0,0 c 0,0.151 0.135,0.219 0.135,0.472 0,0.118 0,0.151 -0.068,0.151 H 0.033 L -0.102,0.539 -0.422,0.253 -0.725,-0.051 -0.994,-0.438 c -0.084,-0.152 -0.118,-0.27 -0.118,-0.354 0,-0.017 0.017,-0.033 0.034,-0.033 0.033,0 0.067,0.016 0.118,0.05 0.084,0.017 0.117,0.017 0.151,0.017 0.034,0 0.068,0.033 0.119,0.084 l 0.084,0.152 0.134,0.134 0.337,0.286 z m -2.376,-2.477 -0.219,-0.151 -0.117,-0.085 -0.169,-0.134 c -0.118,-0.067 -0.235,-0.134 -0.337,-0.202 l -0.101,-0.085 -0.168,-0.084 c -0.068,-0.151 -0.169,-0.185 -0.37,-0.185 -0.102,0 -0.119,0.017 -0.135,0.152 0.016,0.135 0.067,0.202 0.201,0.27 v 0.168 c 0.135,0.134 0.253,0.269 0.354,0.387 l 0.118,0.168 0.118,0.051 c 0.067,0.169 0.185,0.253 0.354,0.32 l 0.05,0.118 0.219,0.134 0.185,0.153 c 0.051,0.033 0.068,0.084 0.068,0.151 v 0.067 l 0.084,0.152 -0.033,0.101 0.05,0.135 c 0.068,0.354 0.152,0.623 0.303,0.842 l 0.118,0.067 -0.033,0.102 c 0.303,0.572 0.741,0.977 1.213,1.398 h 0.084 l 0.067,0.068 0.084,0.016 0.051,0.118 c 0.286,0.236 0.539,0.337 0.858,0.337 0.068,0 0.153,0 0.237,-0.016 L 0.825,2.021 1.162,1.92 1.28,1.769 1.331,1.752 c 0.067,-0.186 0.101,-0.32 0.101,-0.371 0,-0.033 0,-0.084 -0.017,-0.135 L 1.466,1.129 1.448,0.943 1.381,0.725 1.264,0.556 1.229,0.37 C 1.129,0.186 0.994,0.033 0.825,-0.135 L 0.774,-0.236 c -0.302,-0.37 -0.69,-0.707 -1.162,-1.078 l -0.151,-0.05 -0.051,-0.102 -0.286,-0.185 -0.118,-0.152 c -0.051,-0.033 -0.068,-0.067 -0.068,-0.1 0,-0.102 0.035,-0.22 0.119,-0.405 l 0.084,-0.101 0.05,-0.169 c 0.27,-0.202 0.523,-0.303 0.775,-0.303 0.185,0 0.371,0.084 0.59,0.202 l 0.118,0.033 0.286,0.186 0.219,-0.017 0.05,0.135 c 0.051,0.051 0.237,0.202 0.523,0.455 l 0.135,0.068 0.1,0.151 c 0.153,0.101 0.304,0.169 0.472,0.219 0.102,0.169 0.236,0.236 0.388,0.269 l 0.134,0.135 c 0.102,0.034 0.186,0.051 0.219,0.051 0.118,0 0.169,-0.033 0.169,-0.135 0,-0.067 -0.033,-0.151 -0.084,-0.219 L 3.251,-1.449 C 3.15,-1.601 2.981,-1.769 2.779,-1.954 V -2.005 C 2.779,-2.14 2.729,-2.173 2.544,-2.19 2.393,-2.493 2.14,-2.628 1.887,-2.847 L 1.752,-2.965 1.668,-2.999 C 1.55,-3.1 1.432,-3.218 1.348,-3.302 L 1.246,-3.42 1.044,-3.555 C 0.64,-3.908 0.151,-4.094 -0.135,-4.094 h -0.084 l -0.185,0.034 -0.085,-0.05 h -0.236 c -0.421,0 -0.673,0.084 -0.808,0.252 l -0.118,-0.017 -0.203,0.186 -0.1,0.185 -0.084,0.084 c -0.118,0.151 -0.186,0.286 -0.236,0.455 l -0.084,0.337 z" /></g><g
           transform="translate(43.7574,20.3289)"
           id="g86"><path
             id="path88"
             style="fill:#ff00aa;fill-opacity:1;fill-rule:nonzero;stroke:none"
             d="M 0,0 C 1.297,1.466 1.988,2.325 2.308,2.426 L 2.477,2.477 2.662,2.594 2.847,2.661 2.965,2.628 3.083,2.611 C 3.403,2.375 3.521,2.207 3.521,1.987 3.521,1.87 3.504,1.735 3.454,1.566 L 3.42,1.28 C 3.369,1.062 3.318,0.876 3.269,0.725 L 3.15,0.556 V 0.404 C 2.965,0 2.83,-0.404 2.713,-0.758 L 2.628,-0.825 c 0.018,-0.051 0.034,-0.085 0.034,-0.135 0,-0.152 -0.151,-0.186 -0.151,-0.354 v -0.068 l 0.353,0.32 c 0.135,0.219 0.32,0.421 0.539,0.624 l 0.118,0.05 0.05,0.084 0.018,0.102 c 0.05,0.1 0.1,0.185 0.202,0.253 l 0.252,0.151 0.118,0.186 c 0.556,0.539 1.011,0.825 1.483,0.825 0.303,0 0.504,-0.102 0.572,-0.304 L 6.368,0.741 C 6.486,0.472 6.621,0.202 6.756,-0.102 L 6.705,-0.286 c 0.235,-0.152 0.219,-0.59 0.522,-0.59 0.068,0 0.135,0.017 0.236,0.051 l 0.067,0.033 0.068,0.118 0.202,0.152 0.135,0.134 c 0.555,0.135 0.842,0.623 1.162,0.623 0.118,0 0.152,-0.049 0.152,-0.168 0,-0.016 -0.051,-0.118 -0.085,-0.286 L 9.047,-0.354 C 8.743,-0.725 8.39,-1.095 8.002,-1.466 L 7.918,-1.55 7.783,-1.634 C 7.732,-1.819 7.632,-1.854 7.446,-1.954 L 7.328,-2.072 6.991,-2.207 c -0.135,-0.067 -0.235,-0.102 -0.32,-0.102 -0.354,0 -0.775,0.355 -1.044,1.011 L 5.61,-1.129 c -0.202,0.169 -0.387,0.371 -0.556,0.607 -0.068,0.033 -0.135,0.05 -0.185,0.05 -0.152,0 -0.354,-0.169 -0.675,-0.438 L 4.043,-0.96 3.908,-1.146 C 3.791,-1.298 3.656,-1.398 3.487,-1.449 L 3.251,-1.803 C 2.713,-2.409 2.342,-2.813 2.089,-3.032 1.836,-3.369 1.617,-3.487 1.18,-3.487 c -0.202,0 -0.27,0.033 -0.321,0.253 l 0.017,0.235 -0.051,0.085 0.034,0.151 c 0.303,1.028 0.455,1.583 0.455,1.685 0,0.016 0.05,0.084 0.101,0.235 L 1.5,-0.708 c -0.034,0.067 -0.034,0.102 -0.034,0.118 0,0.168 0.185,0.421 0.185,0.708 0,0.05 -0.067,0.084 -0.151,0.084 -0.438,0 -0.489,-0.388 -0.691,-0.506 L 0.606,-0.573 0.421,-0.741 0.304,-0.775 0.253,-0.825 0.202,-0.91 0.135,-1.011 C 0.051,-1.045 0,-1.078 -0.017,-1.129 l -0.152,-0.135 c -0.791,-0.623 -1.263,-0.943 -1.397,-0.943 -0.102,0 -0.169,0.067 -0.169,0.169 0,0.117 0.067,0.202 0.219,0.286 v 0.151 c 0.556,0.674 0.926,0.978 0.977,0.978 0,0.017 -0.017,0.05 -0.017,0.05 0,0.034 0.017,0.034 0.051,0.034 h 0.017 c 0.051,0 0.084,0.05 0.1,0.168 l 0.118,0.101 0.169,0.152 z" /></g><g
           transform="translate(56.2906,25.3993)"
           id="g90"><path
             id="path92"
             style="fill:#ff00aa;fill-opacity:1;fill-rule:nonzero;stroke:none"
             d="m 0,0 c 0.118,0 0.202,-0.017 0.304,-0.067 0.067,0 0.101,-0.017 0.101,-0.084 v -0.051 c 0.017,-0.438 0.068,-0.691 0.068,-0.758 0,-0.337 -0.119,-0.404 -0.439,-0.404 -0.051,0 -0.202,0.016 -0.437,0.016 -0.118,-0.353 -0.22,-0.555 -0.253,-0.623 0.016,-0.067 0.051,-0.118 0.051,-0.151 0,-0.067 -0.051,-0.102 -0.119,-0.186 -0.371,-1.448 -0.657,-2.662 -0.792,-3.655 v -0.051 c -0.016,-0.05 -0.033,-0.101 -0.033,-0.134 0,-0.017 0,-0.035 0.017,-0.068 -0.102,-0.488 -0.118,-0.792 -0.118,-0.876 0,-0.084 0.101,-0.169 0.151,-0.169 0.085,0 0.169,0.085 0.337,0.202 0.051,0 0.101,0.018 0.169,0.018 h 0.05 c -0.017,0.05 -0.034,0.101 -0.034,0.135 0,0.016 0,0.033 0.034,0.084 0.27,0.235 0.506,0.421 0.724,0.59 0.017,0.1 0.051,0.134 0.135,0.184 0.186,0.118 0.32,0.253 0.438,0.388 l 0.068,0.016 0.051,0.102 c 0.151,0.101 0.286,0.186 0.454,0.235 0.118,0.102 0.236,0.22 0.371,0.287 l 0.1,0.05 c 0.119,0.085 0.22,0.135 0.321,0.135 0.084,0 0.168,-0.033 0.168,-0.101 0,-0.067 -0.033,-0.134 -0.084,-0.218 L 1.77,-5.272 C 1.635,-5.441 1.466,-5.626 1.264,-5.812 1.247,-5.963 1.214,-6.014 1.045,-6.014 L 0.927,-6.216 0.657,-6.485 C 0.422,-6.755 0.271,-6.89 0.186,-6.924 0.102,-6.924 0.085,-6.957 0.067,-7.041 -0.185,-7.396 -0.387,-7.614 -0.605,-7.732 -0.724,-7.749 -0.758,-7.8 -0.774,-7.917 -1.044,-8.271 -1.397,-8.558 -1.819,-8.794 h -0.034 c -0.067,-0.066 -0.168,-0.117 -0.286,-0.117 -0.034,0 -0.067,0.016 -0.118,0.016 -0.016,0.017 -0.034,0.035 -0.051,0.035 -0.016,0 -0.05,-0.018 -0.1,-0.035 -0.068,0.017 -0.102,0.051 -0.152,0.101 -0.489,0.102 -0.54,0.337 -0.54,0.978 0,0.034 0,0.1 0.018,0.218 v 0.068 c 0,0.067 -0.018,0.101 -0.034,0.151 v 0.271 c 0,0.184 0.034,0.386 0.101,0.572 l 0.05,0.1 c -0.033,0.035 -0.05,0.085 -0.05,0.136 v 0.068 c 0.118,0.606 0.236,1.06 0.354,1.364 0.101,0.1 0.168,0.168 0.168,0.219 0,0.034 -0.017,0.067 -0.05,0.118 l 0.05,0.253 -0.101,-0.169 c -0.151,-0.084 -0.219,-0.219 -0.337,-0.455 -0.118,-0.135 -0.286,-0.135 -0.32,-0.354 L -3.453,-5.441 C -3.521,-5.593 -3.57,-5.66 -3.672,-5.66 c -0.135,0 -0.169,-0.033 -0.185,-0.168 L -3.908,-5.963 -4.11,-6.115 c -0.118,-0.068 -0.168,-0.135 -0.202,-0.27 l -0.101,-0.067 c -0.169,-0.084 -0.286,-0.152 -0.388,-0.252 -0.1,-0.034 -0.185,-0.085 -0.286,-0.169 -0.135,-0.067 -0.253,-0.135 -0.337,-0.235 l -0.151,-0.119 c -0.085,-0.034 -0.153,-0.034 -0.169,-0.034 -0.152,0 -0.202,0.034 -0.202,0.169 v 0.051 c 0.05,0.117 0.101,0.168 0.218,0.202 v 0.219 c 0.186,0.151 0.304,0.269 0.372,0.353 l -0.018,0.119 0.27,0.134 c 0.068,0.152 0.168,0.236 0.32,0.321 l 0.101,0.151 c 0.084,0.05 0.152,0.084 0.186,0.151 0.05,0.017 0.134,0.051 0.201,0.051 v 0.135 c 0.236,0.286 0.455,0.556 0.658,0.791 0.068,0.236 0.269,0.473 0.538,0.81 0.102,0.016 0.153,0.049 0.153,0.117 0,0.017 -0.018,0.05 -0.034,0.101 0.151,0.202 0.286,0.421 0.387,0.657 h 0.017 c 0.219,0 0.236,0.455 0.64,1.095 0.084,0.084 0.168,0.219 0.236,0.37 l -0.219,0.035 c -0.169,-0.068 -0.304,-0.102 -0.404,-0.102 -0.118,0 -0.253,0.034 -0.388,0.034 -0.017,0 -0.051,-0.016 -0.101,-0.034 -0.034,0.018 -0.084,0.018 -0.101,0.018 -0.033,0 -0.067,0 -0.135,-0.035 h -0.909 c -0.067,0.035 -0.118,0.084 -0.152,0.169 -0.034,-0.067 -0.084,-0.118 -0.152,-0.169 -0.016,0 -0.05,-0.016 -0.067,-0.016 -0.118,0 -0.235,0.067 -0.354,0.151 -0.202,0.017 -0.202,0.067 -0.202,0.253 0,0.135 0.051,0.337 0.051,0.64 0,0.067 -0.018,0.152 -0.018,0.236 h 0.085 c 0.017,0 0.05,0.017 0.101,0.067 0.236,0.034 0.404,0.068 0.506,0.068 0.184,0 0.37,-0.017 0.556,-0.051 0.218,0.017 0.437,0.034 0.657,0.034 0.033,0 0.151,-0.017 0.353,-0.034 0.017,-0.017 0.051,-0.017 0.068,-0.017 0.016,0 0.067,0.017 0.134,0.051 0.135,0.017 0.253,0.017 0.337,0.017 0.068,0 0.186,-0.017 0.371,-0.051 L -1.6,-0.067 c 0.186,0.016 0.32,0.05 0.421,0.084 0.219,0.472 0.337,0.775 0.37,0.893 0.068,0.152 0.169,0.253 0.304,0.303 v 0.034 c 0,0.151 0.253,0.27 0.455,0.27 0.135,0 0.202,-0.051 0.252,-0.203 C 0.253,1.23 0.287,1.163 0.287,1.078 0.202,0.809 0.102,0.438 0,0" /></g><g
           transform="translate(59.4752,21.5418)"
           id="g94"><path
             id="path96"
             style="fill:#ff00aa;fill-opacity:1;fill-rule:nonzero;stroke:none"
             d="m 0,0 c 0,0.151 0.135,0.219 0.135,0.472 0,0.118 0,0.151 -0.068,0.151 H 0.034 L -0.101,0.539 -0.421,0.253 -0.725,-0.051 -0.994,-0.438 c -0.084,-0.152 -0.117,-0.27 -0.117,-0.354 0,-0.017 0.016,-0.033 0.033,-0.033 0.034,0 0.067,0.016 0.118,0.05 0.084,0.017 0.118,0.017 0.151,0.017 0.034,0 0.068,0.033 0.119,0.084 l 0.084,0.152 0.134,0.134 0.337,0.286 z m -2.375,-2.477 -0.22,-0.151 -0.117,-0.085 -0.169,-0.134 c -0.117,-0.067 -0.235,-0.134 -0.337,-0.202 l -0.1,-0.085 -0.169,-0.084 c -0.068,-0.151 -0.168,-0.185 -0.37,-0.185 -0.102,0 -0.119,0.017 -0.135,0.152 0.016,0.135 0.067,0.202 0.202,0.27 v 0.168 c 0.135,0.134 0.252,0.269 0.353,0.387 l 0.119,0.168 0.118,0.051 c 0.067,0.169 0.184,0.253 0.353,0.32 l 0.05,0.118 0.22,0.134 0.184,0.153 c 0.051,0.033 0.069,0.084 0.069,0.151 v 0.067 l 0.084,0.152 -0.034,0.101 0.05,0.135 c 0.068,0.354 0.152,0.623 0.304,0.842 l 0.117,0.067 -0.033,0.102 c 0.303,0.572 0.741,0.977 1.213,1.398 h 0.084 l 0.067,0.068 0.084,0.016 0.051,0.118 c 0.286,0.236 0.539,0.337 0.859,0.337 0.068,0 0.152,0 0.236,-0.016 L 0.825,2.021 1.162,1.92 1.28,1.769 1.331,1.752 c 0.067,-0.186 0.101,-0.32 0.101,-0.371 0,-0.033 0,-0.084 -0.017,-0.135 L 1.466,1.129 1.448,0.943 1.381,0.725 1.264,0.556 1.229,0.37 C 1.129,0.186 0.994,0.033 0.825,-0.135 L 0.775,-0.236 C 0.472,-0.606 0.084,-0.943 -0.388,-1.314 l -0.151,-0.05 -0.051,-0.102 -0.286,-0.185 -0.118,-0.152 c -0.05,-0.033 -0.068,-0.067 -0.068,-0.1 0,-0.102 0.035,-0.22 0.119,-0.405 l 0.084,-0.101 0.05,-0.169 c 0.27,-0.202 0.523,-0.303 0.776,-0.303 0.184,0 0.37,0.084 0.589,0.202 l 0.118,0.033 0.286,0.186 0.22,-0.017 0.049,0.135 c 0.051,0.051 0.237,0.202 0.523,0.455 l 0.135,0.068 0.101,0.151 c 0.152,0.101 0.303,0.169 0.471,0.219 0.102,0.169 0.236,0.236 0.388,0.269 l 0.134,0.135 c 0.102,0.034 0.186,0.051 0.22,0.051 0.117,0 0.168,-0.033 0.168,-0.135 0,-0.067 -0.033,-0.151 -0.084,-0.219 L 3.251,-1.449 C 3.15,-1.601 2.981,-1.769 2.779,-1.954 V -2.005 C 2.779,-2.14 2.729,-2.173 2.544,-2.19 2.393,-2.493 2.14,-2.628 1.887,-2.847 L 1.752,-2.965 1.668,-2.999 C 1.55,-3.1 1.432,-3.218 1.348,-3.302 L 1.247,-3.42 1.045,-3.555 C 0.641,-3.908 0.151,-4.094 -0.135,-4.094 h -0.084 l -0.185,0.034 -0.084,-0.05 h -0.237 c -0.421,0 -0.673,0.084 -0.808,0.252 l -0.118,-0.017 -0.203,0.186 -0.1,0.185 -0.084,0.084 c -0.118,0.151 -0.186,0.286 -0.236,0.455 l -0.084,0.337 z" /></g><g
           transform="translate(64.2936,19.6385)"
           id="g98"><path
             id="path100"
             style="fill:#ff00aa;fill-opacity:1;fill-rule:nonzero;stroke:none"
             d="m 0,0 c 0.337,0.336 0.572,0.656 0.725,0.876 l 0.117,0.05 0.101,0.185 C 1.28,1.55 1.482,1.987 1.718,2.308 1.735,2.628 1.752,2.914 1.819,3.184 L 1.65,3.167 1.583,3.016 1.482,2.88 C 1.331,2.712 1.196,2.577 1.095,2.459 L 1.011,2.392 0.876,2.324 0.859,2.206 C 0.741,2.055 0.522,1.752 0.151,1.297 0.034,1.195 -0.051,1.061 -0.084,0.909 -0.202,0.809 -0.286,0.69 -0.337,0.539 -0.455,0.454 -0.522,0.336 -0.573,0.219 -0.59,0.067 -0.657,-0.034 -0.758,-0.118 -0.792,-0.22 -0.859,-0.337 -0.943,-0.472 -0.994,-0.607 -1.095,-0.725 -1.095,-0.91 c 0.068,-0.033 0.118,-0.051 0.135,-0.051 0.067,0 0.151,0.084 0.252,0.236 l 0.152,0.101 c 0.202,0.236 0.27,0.422 0.421,0.422 h 0.017 z m 4.582,-0.018 0.186,0.119 c 0.1,0.134 0.185,0.185 0.269,0.185 l 0.388,0.168 0.201,0.22 c 0.102,0.016 0.169,0.033 0.236,0.117 0.084,0.085 0.169,0.135 0.253,0.135 0.017,0 0.068,0 0.118,-0.017 C 6.283,0.858 6.301,0.825 6.301,0.774 6.301,0.741 6.267,0.64 6.216,0.472 L 6.014,0.185 5.744,-0.067 C 5.728,-0.236 5.66,-0.287 5.475,-0.304 5.407,-0.539 5.29,-0.641 5.054,-0.691 L 4.986,-0.775 4.852,-0.843 C 4.768,-0.927 4.666,-0.978 4.548,-0.994 4.447,-1.062 4.363,-1.112 4.296,-1.196 4.145,-1.213 4.026,-1.247 3.908,-1.314 L 3.79,-1.348 3.639,-1.331 C 3.537,-1.348 3.453,-1.348 3.42,-1.348 c -0.236,0 -0.506,0.101 -0.859,0.303 L 2.51,-0.961 c -0.101,0.067 -0.186,0.169 -0.252,0.27 l -0.034,0.118 -0.051,0.051 c -0.084,0.118 -0.152,0.235 -0.202,0.37 0.017,0.05 0.034,0.085 0.034,0.118 0,0.067 -0.034,0.118 -0.118,0.169 C 1.87,0.319 1.836,0.421 1.769,0.505 L 1.735,0.707 1.65,0.893 C 1.533,0.774 1.466,0.656 1.398,0.572 1.297,0.505 1.229,0.421 1.18,0.286 1.027,0.219 0.96,0.135 0.943,-0.018 L 0.893,-0.135 C 0.792,-0.253 0.657,-0.388 0.522,-0.557 L 0.32,-0.675 0.235,-0.843 c -0.168,-0.219 -0.37,-0.488 -0.69,-0.808 l -0.27,-0.169 -0.168,-0.168 c -0.152,-0.101 -0.287,-0.219 -0.404,-0.37 l -0.202,-0.085 h -0.118 c -0.017,0 -0.102,0 -0.219,-0.017 h -0.135 c -0.067,-0.017 -0.134,-0.033 -0.185,-0.033 -0.118,0 -0.253,0.1 -0.321,0.286 l -0.016,0.084 -0.034,0.051 -0.017,0.1 -0.033,0.068 c 0,0.422 0.117,0.826 0.303,1.28 l 0.067,0.287 c -0.186,-0.135 -0.354,-0.27 -0.522,-0.422 l -0.185,-0.084 c -0.067,-0.118 -0.169,-0.168 -0.32,-0.202 -0.405,-0.303 -0.624,-0.472 -0.742,-0.472 -0.067,0 -0.101,0.035 -0.151,0.119 l 0.033,0.134 c 0.051,0.101 0.102,0.152 0.186,0.168 l -0.017,0.186 c 0.05,0.1 0.134,0.168 0.252,0.235 0.102,0.136 0.22,0.253 0.388,0.371 0.067,0.202 0.151,0.304 0.353,0.337 l 0.068,0.168 0.135,0.051 c 0.016,0.102 0.083,0.169 0.219,0.22 0.017,0 0.05,-0.018 0.068,-0.018 0.049,0 0.084,0.051 0.1,0.135 0.169,0.169 0.354,0.337 0.607,0.539 0.218,0.067 0.32,0.118 0.32,0.253 v 0.034 c 0.033,0.033 0.253,0.235 0.657,0.623 l 0.084,0.101 0.253,0.202 0.286,0.269 C 0.067,2.847 0.421,3.167 0.943,3.588 1.078,3.706 1.313,3.891 1.65,4.144 1.803,4.211 1.921,4.262 2.038,4.262 2.14,4.531 2.207,4.801 2.258,5.037 L 2.342,5.138 C 2.544,5.845 2.796,6.519 3.1,7.159 l 0.118,0.102 v 0.067 c 0,0.168 0.067,0.303 0.168,0.403 0.067,0.085 0.135,0.153 0.169,0.271 L 3.706,8.17 3.757,8.406 C 3.841,8.591 3.976,8.811 4.212,9.063 L 4.363,9.265 4.531,9.366 4.599,9.315 4.683,9.383 C 4.784,9.366 4.886,9.35 4.986,9.315 L 5.054,9.181 5.003,9.097 5.07,9.013 V 8.945 C 5.07,8.726 5.003,8.54 4.936,8.321 L 4.953,8.153 C 4.919,7.9 4.852,7.698 4.717,7.513 L 4.733,7.378 C 4.7,7.159 4.633,6.94 4.531,6.755 L 4.447,6.671 4.464,6.604 4.431,6.502 4.414,6.384 C 4.312,6.3 4.262,6.199 4.262,6.081 4.262,6.03 4.279,5.997 4.279,5.946 4.229,5.643 4.11,5.391 3.942,5.121 3.875,5.07 3.824,5.02 3.824,4.952 3.824,4.919 3.841,4.902 3.841,4.868 3.79,4.699 3.706,4.531 3.604,4.362 3.504,4.346 3.47,4.329 3.47,4.295 3.47,4.278 3.487,4.228 3.521,4.144 3.47,3.992 3.353,3.706 3.15,3.318 L 3.066,3.133 C 2.999,2.931 2.965,2.729 2.965,2.526 V 2.408 L 2.914,2.224 2.965,2.038 C 2.965,1.634 3.016,1.229 3.116,0.809 3.1,0.758 3.083,0.724 3.083,0.707 3.083,0.656 3.116,0.623 3.184,0.589 L 3.302,0.336 C 3.386,0.252 3.437,0.151 3.47,0.05 c 0.134,-0.084 0.269,-0.135 0.422,-0.185 0.1,-0.017 0.185,-0.034 0.269,-0.034 0.051,0 0.101,0.034 0.168,0.051 z" /></g><g
           transform="translate(77.6696,27.3202)"
           id="g102"><path
             id="path104"
             style="fill:#ff00aa;fill-opacity:1;fill-rule:nonzero;stroke:none"
             d="m 0,0 c -0.067,-0.135 -0.219,-0.286 -0.421,-0.506 0.017,-0.016 0.017,-0.033 0.017,-0.05 0,-0.169 -0.337,-0.607 -0.792,-1.5 l -0.017,-0.118 c -0.304,-0.421 -0.202,-0.758 -0.455,-0.791 l 0.017,-0.185 c -0.454,-1.18 -0.606,-1.921 -0.606,-2.038 0,-0.035 0,-0.051 0.033,-0.051 0.152,0 0.152,0.202 0.337,0.506 0,0.201 0.135,0.386 0.388,0.623 l 0.051,0.252 c 0.151,0.539 0.505,0.775 0.505,1.112 0.067,0.051 0.1,0.084 0.1,0.151 v 0.085 c 0,0.101 0.135,0.168 0.135,0.354 l 0.067,0.117 0.018,0.152 c 0.219,0.405 0.421,0.909 0.606,1.567 z m -3.959,-8.289 -0.186,-0.168 c -0.049,-0.051 -0.067,-0.067 -0.117,-0.067 h -0.05 c -0.034,0 -0.523,-0.236 -0.54,-0.337 -0.151,0 -0.252,-0.051 -0.303,-0.051 -0.05,0 -0.117,0.067 -0.117,0.152 0,0.101 0.134,0.117 0.134,0.252 0,0.034 0,0.068 -0.017,0.102 l 0.134,0.151 c 0,0 0,-0.016 0.018,-0.016 0.05,0 0.219,0.32 0.791,0.875 l 0.169,0.101 c 0.235,0.27 0.455,0.422 0.522,0.708 l -0.017,0.151 c 0.136,0.59 0.101,0.978 0.27,1.163 v 0.185 c 0.084,0.337 0.202,0.809 0.371,1.399 l 0.202,0.471 v 0.135 c 0.32,0.758 0.438,1.701 1.027,2.645 l 0.034,0.152 c 0.27,0.556 0.488,1.027 0.809,1.415 l 0.117,0.168 c 0.051,0.118 0.169,0.219 0.388,0.304 l 0.185,0.033 C 0.168,1.769 0.388,2.021 0.843,2.021 1.095,2.021 1.229,1.87 1.229,1.65 1.229,1.601 1.213,1.533 1.179,1.448 1.213,1.381 1.246,1.313 1.246,1.28 1.246,1.213 1.213,1.146 1.179,1.044 L 1.196,0.825 C 1.112,0.354 0.943,-0.067 0.893,-0.455 L 0.825,-0.539 c 0,-0.051 -0.202,-0.59 -0.639,-1.567 l -0.27,-0.64 c -0.102,-0.186 -0.118,-0.286 -0.169,-0.286 -0.033,0 -0.033,0.033 -0.067,0.033 -0.034,0 -0.034,-0.051 -0.034,-0.101 0,-0.067 0,-0.152 -0.05,-0.219 -0.068,-0.084 -0.152,-0.152 -0.186,-0.236 -0.084,-0.286 -0.118,-0.455 -0.219,-0.455 -0.034,0 -0.084,0.017 -0.134,0.034 l -0.035,-0.152 c 0.018,-0.05 0.018,-0.084 0.018,-0.101 0,-0.168 -0.067,-0.286 -0.202,-0.437 L -1.213,-4.802 C -1.685,-5.593 -2.005,-5.93 -2.005,-6.082 V -6.099 L -2.207,-6.25 C -2.224,-6.452 -2.291,-6.604 -2.442,-6.738 -2.477,-6.924 -2.493,-7.16 -2.493,-7.43 v -0.539 c 0.016,-0.926 0.253,-1.398 0.606,-1.398 0.168,0 0.37,0.101 0.623,0.27 0.59,0.707 0.944,1.044 0.944,1.112 0,0.016 -0.168,0.218 -0.185,0.218 -0.017,0 -0.017,-0.117 -0.169,-0.302 l -0.151,-0.169 -0.051,-0.118 c -0.067,-0.084 -0.118,-0.135 -0.168,-0.135 -0.102,0 -0.388,0.152 -0.388,0.387 0,0.135 0.051,0.27 0.152,0.405 0.051,0.303 0.253,0.573 0.539,0.927 l 0.202,0.236 c 0.286,0.37 0.438,0.539 0.725,0.539 0.049,0 0.151,-0.018 0.269,-0.051 h 0.303 c 0.034,0 0.085,0.017 0.101,0.017 0.152,0 0.219,-0.068 0.219,-0.253 0,-0.051 -0.016,-0.152 -0.051,-0.27 L 0.943,-6.94 C 0.893,-7.126 0.825,-7.295 0.725,-7.463 L 0.59,-7.767 C 0.27,-8.373 -0.017,-8.878 -0.354,-9.3 l -0.168,-0.135 c -0.203,-0.252 -0.472,-0.538 -0.859,-0.858 l -0.169,-0.051 -0.067,-0.118 c -0.27,-0.202 -0.539,-0.303 -0.809,-0.303 -0.859,0 -1.213,0.876 -1.213,2.661 v 0.119 c -0.084,-0.119 -0.202,-0.219 -0.32,-0.304" /></g><g
           transform="translate(86.9352,18.8465)"
           id="g106"><path
             id="path108"
             style="fill:#ff00aa;fill-opacity:1;fill-rule:nonzero;stroke:none"
             d="m 0,0 -0.034,-0.085 c -0.152,-0.168 -0.303,-0.286 -0.488,-0.37 l -0.017,-0.084 c -0.152,-0.017 -0.22,-0.067 -0.27,-0.186 l -0.05,-0.05 -0.035,-0.068 c -0.151,-0.1 -0.252,-0.202 -0.319,-0.32 C -1.415,-1.264 -1.5,-1.364 -1.55,-1.466 -1.77,-1.701 -2.021,-1.988 -2.342,-2.325 -2.426,-2.442 -2.493,-2.544 -2.578,-2.611 -2.679,-2.83 -2.797,-3.05 -2.932,-3.234 -2.982,-3.453 -3.066,-3.588 -3.185,-3.673 l -0.033,-0.118 -0.1,-0.067 -0.035,-0.101 -0.05,-0.034 c -0.017,-0.135 -0.051,-0.219 -0.168,-0.286 -0.051,-0.152 -0.153,-0.303 -0.27,-0.438 l -0.236,-0.387 -0.27,-0.337 -0.235,-0.287 -0.085,-0.152 c -0.135,-0.067 -0.235,-0.168 -0.303,-0.303 -0.202,-0.303 -0.455,-0.539 -0.758,-0.741 -0.27,-0.084 -0.472,-0.135 -0.606,-0.135 -0.118,0 -0.22,0.034 -0.32,0.101 l -0.034,0.102 0.017,0.134 0.033,0.135 c 0.135,0.253 0.27,0.539 0.472,0.876 0.051,0.067 0.151,0.118 0.253,0.169 -0.018,0.066 -0.034,0.101 -0.034,0.117 0,0.068 0.118,0.135 0.303,0.304 v 0.084 c 0,0.033 0.017,0.067 0.068,0.135 0.219,0.303 0.472,0.623 0.724,0.976 l 0.152,0.102 c 0.016,0.118 0.067,0.219 0.151,0.32 0.337,0.404 0.674,0.809 1.028,1.213 0.067,0.185 0.134,0.354 0.203,0.472 l -0.035,0.049 0.152,0.372 -0.017,0.067 c 0.101,0.185 0.152,0.388 0.202,0.59 0.101,0.1 0.152,0.219 0.152,0.353 0,0.051 -0.017,0.102 -0.017,0.152 0.051,0.118 0.068,0.202 0.068,0.32 l 0.033,0.084 v 0.051 c 0.067,0.236 0.085,0.455 0.085,0.64 V 1.027 L -2.763,1.044 -2.848,0.893 C -3.083,0.674 -3.302,0.522 -3.487,0.388 L -3.521,0.286 -3.589,0.253 -3.757,-0.018 c -0.151,-0.151 -0.371,-0.336 -0.623,-0.588 -0.202,-0.102 -0.337,-0.119 -0.371,-0.27 -0.388,-0.404 -0.69,-0.606 -0.96,-0.606 h -0.067 c -0.506,0 -0.658,0.016 -0.658,0.707 v 0.118 c 0.017,0.067 0.035,0.101 0.035,0.118 0,0.033 -0.035,0.067 -0.102,0.101 v 0.219 C -6.503,0 -6.52,0.185 -6.536,0.388 L -6.604,0.437 -6.688,0.421 -6.756,0.37 -6.806,0.27 C -7.042,0.219 -7.144,0.05 -7.295,0.033 -7.412,-0.118 -7.564,-0.202 -7.749,-0.236 l -0.186,-0.168 c -0.134,-0.034 -0.219,-0.102 -0.287,-0.219 -0.117,-0.051 -0.218,-0.085 -0.268,-0.085 -0.085,0 -0.153,0.067 -0.153,0.169 0,0.017 0,0.051 0.018,0.084 l 0.219,0.169 v 0.184 c 0.151,0.169 0.269,0.304 0.353,0.388 l 0.084,0.169 0.186,0.033 c 0.016,0.202 0.135,0.337 0.32,0.337 h 0.051 l 0.033,0.186 0.118,0.084 c 0.135,0.067 0.27,0.169 0.438,0.32 l 0.202,0.118 0.051,0.168 c 0.724,0.741 1.027,1.28 1.448,1.28 0.27,0 0.522,-0.235 0.522,-0.504 0,-0.035 0,-0.068 -0.016,-0.102 L -4.649,2.274 V 2.207 c 0,-0.068 -0.018,-0.118 -0.068,-0.202 L -4.784,1.65 c -0.253,-0.791 -0.32,-1.347 -0.32,-1.415 0,-0.05 0.016,-0.1 0.049,-0.168 l 0.051,-0.034 0.102,0.051 c 0.151,0.169 0.387,0.337 0.673,0.506 0.185,0.135 0.321,0.319 0.489,0.538 l 0.185,0.136 0.168,0.168 c 0.287,0.337 0.49,0.555 0.624,0.673 l 0.068,0.102 C -2.393,2.51 -2.14,2.763 -1.87,2.965 L -1.837,3.1 c 0.32,0.253 0.473,0.437 0.775,0.437 0.337,0 0.523,-0.135 0.523,-0.286 0,-0.067 -0.067,-0.235 -0.085,-0.505 L -0.725,2.442 -0.759,2.308 C -1.045,1.246 -1.28,0.455 -1.533,-0.067 l -0.017,-0.084 -0.118,-0.355 0.135,0.051 c 0.151,0 0.202,0.034 0.202,0.135 v 0.05 c 0.202,0.303 0.455,0.54 0.859,0.758 0.135,0.253 0.354,0.405 0.556,0.573 L 0.337,1.179 C 0.472,1.229 0.539,1.28 0.59,1.398 0.674,1.432 0.774,1.499 0.842,1.55 0.96,1.668 1.044,1.735 1.128,1.735 1.297,1.735 1.381,1.701 1.381,1.634 1.381,1.617 1.364,1.583 1.348,1.55 1.313,1.482 1.297,1.398 1.297,1.313 1.111,1.078 0.943,0.876 0.758,0.741 0.758,0.572 0.725,0.522 0.539,0.505 0.437,0.337 0.286,0.168 0.101,0.017 Z" /></g><g
           transform="translate(106.1188,13.4745)"
           id="g110"><path
             id="path112"
             style="fill:#1595ff;fill-opacity:1;fill-rule:nonzero;stroke:none"
             d="m 0,0 v 3.596 c 3.815,0 6.766,3.776 5.31,7.788 -0.54,1.485 -1.725,2.67 -3.211,3.21 -4.011,1.455 -7.786,-1.494 -7.786,-5.31 H -5.688 L -9.283,9.283 c 0,6.079 5.873,10.813 12.242,8.823 2.783,-0.868 4.995,-3.08 5.864,-5.864 C 10.812,5.873 6.079,0 0,0" /></g><g
           transform="translate(106.1276,17.0614)"
           id="g114"><path
             id="path116"
             style="fill:#1595ff;fill-opacity:1;fill-rule:evenodd;stroke:none"
             d="m 0,0 h -3.585 v 3.583 l 10e-4,10e-4 H -10e-4 0 Z" /></g><g
           transform="translate(102.5416,14.3065)"
           id="g118"><path
             id="path120"
             style="fill:#1595ff;fill-opacity:1;fill-rule:evenodd;stroke:none"
             d="M 0,0 H -2.753 L -2.754,0.001 V 2.755 H 10e-4 V 10e-4 Z" /></g><g
           transform="translate(99.7897,17.0614)"
           id="g122"><path
             id="path124"
             style="fill:#1595ff;fill-opacity:1;fill-rule:evenodd;stroke:none"
             d="M 0,0 H -2.308 -2.31 v 2.308 l 0.002,0.002 h 2.307 L 0,2.309 Z" /></g><g
           transform="translate(124.5563,25.9803)"
           id="g126"><path
             id="path128"
             style="fill:#1595ff;fill-opacity:1;fill-rule:nonzero;stroke:none"
             d="m 0,0 h 1.057 c 1.174,0 2.142,-0.231 2.876,-0.687 0.813,-0.492 1.226,-1.426 1.226,-2.777 0,-1.391 -0.414,-2.368 -1.229,-2.902 H 3.929 c -0.702,-0.465 -1.664,-0.7 -2.858,-0.7 L 0,-7.066 Z M 5.332,0.693 C 4.269,1.431 2.945,1.805 1.399,1.805 H -1.965 V -8.871 h 3.364 c 1.542,0 2.867,0.394 3.934,1.172 0.581,0.412 1.037,0.988 1.356,1.712 0.319,0.719 0.48,1.569 0.48,2.523 0,0.943 -0.161,1.781 -0.48,2.49 C 6.37,-0.261 5.913,0.301 5.332,0.693" /></g><g
           transform="translate(134.067,27.9168)"
           id="g130"><path
             id="path132"
             style="fill:#1595ff;fill-opacity:1;fill-rule:nonzero;stroke:none"
             d="m 0,0 c -0.323,0 -0.602,-0.115 -0.826,-0.34 -0.228,-0.217 -0.343,-0.49 -0.343,-0.814 0,-0.325 0.115,-0.603 0.341,-0.828 0.226,-0.227 0.505,-0.342 0.828,-0.342 0.323,0 0.603,0.115 0.828,0.342 0.227,0.226 0.342,0.504 0.342,0.828 0,0.323 -0.115,0.597 -0.342,0.812 C 0.603,-0.115 0.323,0 0,0" /></g><path
           id="path134"
           style="fill:#1595ff;fill-opacity:1;fill-rule:nonzero;stroke:none"
           d="m 133.103,17.109 h 1.892 v 7.519 h -1.892 z" /><g
           transform="translate(141.3707,19.5594)"
           id="g136"><path
             id="path138"
             style="fill:#1595ff;fill-opacity:1;fill-rule:nonzero;stroke:none"
             d="m 0,0 c -0.331,-0.376 -0.756,-0.558 -1.299,-0.558 -0.542,0 -0.964,0.182 -1.29,0.557 -0.324,0.373 -0.489,0.868 -0.489,1.471 0,0.612 0.165,1.113 0.489,1.489 0.321,0.372 0.756,0.561 1.29,0.561 0.543,0 0.968,-0.184 1.298,-0.562 C 0.329,2.583 0.496,2.082 0.496,1.47 0.496,0.867 0.329,0.373 0,0 M 0.496,4.44 C -0.074,4.948 -0.712,5.244 -1.4,5.244 -2.445,5.244 -3.313,4.883 -3.98,4.171 -4.656,3.465 -4.999,2.556 -4.999,1.47 c 0,-1.062 0.337,-1.967 1.004,-2.694 0.673,-0.702 1.545,-1.058 2.595,-1.058 0.729,0 1.356,0.203 1.867,0.604 v -0.174 c 0,-0.624 -0.167,-1.108 -0.496,-1.442 -0.329,-0.333 -0.786,-0.501 -1.357,-0.501 -0.874,0 -1.421,0.343 -2.087,1.243 l -1.289,-1.237 0.035,-0.049 c 0.279,-0.391 0.705,-0.773 1.267,-1.137 0.564,-0.361 1.271,-0.545 2.104,-0.545 1.123,0 2.031,0.346 2.7,1.029 0.674,0.686 1.014,1.605 1.014,2.731 V 5.068 H 0.496 Z" /></g><path
           id="path140"
           style="fill:#1595ff;fill-opacity:1;fill-rule:nonzero;stroke:none"
           d="m 145.348,17.109 h 1.893 v 7.519 h -1.893 z" /><g
           transform="translate(146.3131,27.9168)"
           id="g142"><path
             id="path144"
             style="fill:#1595ff;fill-opacity:1;fill-rule:nonzero;stroke:none"
             d="m 0,0 c -0.324,0 -0.603,-0.115 -0.827,-0.34 -0.227,-0.217 -0.342,-0.49 -0.342,-0.814 0,-0.325 0.114,-0.603 0.341,-0.828 0.225,-0.227 0.504,-0.342 0.828,-0.342 0.323,0 0.602,0.115 0.828,0.342 0.226,0.226 0.341,0.504 0.341,0.828 0,0.323 -0.115,0.597 -0.341,0.812 C 0.602,-0.115 0.323,0 0,0" /></g><g
           transform="translate(151.3873,26.66)"
           id="g146"><path
             id="path148"
             style="fill:#1595ff;fill-opacity:1;fill-rule:nonzero;stroke:none"
             d="m 0,0 h -1.862 v -2.032 h -1.082 v -1.724 h 1.082 V -6.88 c 0,-0.977 0.195,-1.677 0.58,-2.078 0.386,-0.403 1.072,-0.607 2.039,-0.607 0.307,0 0.617,0.009 0.919,0.029 l 0.086,0.006 v 1.723 l -0.65,-0.034 c -0.45,0 -0.751,0.079 -0.893,0.235 C 0.074,-7.448 0,-7.113 0,-6.611 v 2.855 h 1.762 v 1.724 H 0 Z" /></g><path
           id="path150"
           style="fill:#1595ff;fill-opacity:1;fill-rule:nonzero;stroke:none"
           d="m 162.02,17.109 h 1.893 v 10.676 h -1.893 z" /><g
           transform="translate(183.0279,19.7977)"
           id="g152"><path
             id="path154"
             style="fill:#1595ff;fill-opacity:1;fill-rule:nonzero;stroke:none"
             d="M 0,0 C -0.339,-0.38 -0.685,-0.708 -0.951,-0.879 V -0.88 c -0.262,-0.167 -0.592,-0.253 -0.982,-0.253 -0.557,0 -1.005,0.203 -1.371,0.621 -0.363,0.416 -0.547,0.951 -0.547,1.59 0,0.64 0.182,1.173 0.54,1.586 0.361,0.415 0.807,0.617 1.364,0.617 0.609,0 1.252,-0.379 1.802,-1.029 L 1.106,3.451 C 0.291,4.512 -0.749,5.006 -1.991,5.006 -3.029,5.006 -3.931,4.627 -4.667,3.882 -5.4,3.141 -5.772,2.197 -5.772,1.078 c 0,-1.119 0.372,-2.064 1.104,-2.81 0.732,-0.747 1.634,-1.125 2.677,-1.125 1.37,0 2.475,0.591 3.221,1.675 z" /></g><g
           transform="translate(186.6578,21.8075)"
           id="g156"><path
             id="path158"
             style="fill:#1595ff;fill-opacity:1;fill-rule:nonzero;stroke:none"
             d="M 0,0 C 0.092,0.359 0.257,0.659 0.494,0.892 0.751,1.145 1.085,1.271 1.486,1.271 1.945,1.271 2.3,1.142 2.542,0.884 2.766,0.645 2.892,0.348 2.918,0 Z M 4.136,1.771 C 3.867,2.145 3.502,2.445 3.05,2.665 2.598,2.885 2.072,2.996 1.486,2.996 c -1.056,0 -1.921,-0.39 -2.569,-1.159 -0.63,-0.763 -0.949,-1.712 -0.949,-2.819 0,-1.14 0.35,-2.083 1.041,-2.804 0.686,-0.717 1.606,-1.081 2.733,-1.081 1.276,0 2.322,0.516 3.112,1.534 l 0.042,0.055 -1.234,1.186 C 3.547,-2.229 3.386,-2.387 3.237,-2.526 3.051,-2.702 2.875,-2.839 2.688,-2.932 2.404,-3.073 2.087,-3.143 1.732,-3.143 c -0.524,0 -0.958,0.155 -1.29,0.459 -0.31,0.285 -0.492,0.668 -0.54,1.142 h 5.013 l 0.017,0.69 c 0,0.49 -0.067,0.96 -0.198,1.401 C 4.603,0.989 4.401,1.4 4.136,1.771" /></g><g
           transform="translate(194.7008,19.9823)"
           id="g160"><path
             id="path162"
             style="fill:#1595ff;fill-opacity:1;fill-rule:nonzero;stroke:none"
             d="m 0,0 c 0.214,0.149 0.518,0.225 0.901,0.225 0.455,0 0.939,-0.091 1.437,-0.272 V -0.784 C 1.926,-1.167 1.377,-1.36 0.704,-1.36 c -0.327,0 -0.582,0.072 -0.757,0.216 -0.172,0.141 -0.256,0.32 -0.256,0.547 0,0.258 0.102,0.453 0.309,0.597 m 3.359,4.083 v 0 C 2.785,4.573 1.993,4.821 1.004,4.821 0.374,4.821 -0.215,4.683 -0.747,4.413 -1.24,4.163 -1.724,3.749 -2.031,3.208 l 0.019,-0.023 1.211,-1.16 c 0.499,0.795 1.054,1.072 1.79,1.072 0.396,0 0.724,-0.106 0.976,-0.316 C 2.216,2.574 2.338,2.311 2.338,1.976 V 1.61 C 1.868,1.753 1.4,1.825 0.945,1.825 0.004,1.825 -0.763,1.604 -1.332,1.167 -1.908,0.725 -2.2,0.092 -2.2,-0.714 c 0,-0.707 0.246,-1.28 0.734,-1.707 0.491,-0.411 1.106,-0.621 1.826,-0.621 0.721,0 1.395,0.291 2.006,0.788 V -2.873 H 4.229 V 1.96 c 0,0.916 -0.292,1.63 -0.87,2.123" /></g><g
           transform="translate(206.2096,23.9178)"
           id="g164"><path
             id="path166"
             style="fill:#1595ff;fill-opacity:1;fill-rule:nonzero;stroke:none"
             d="m 0,0 c -0.527,0.588 -1.268,0.886 -2.202,0.886 -0.75,0 -1.361,-0.216 -1.816,-0.641 V 0.71 h -1.856 v -7.519 h 1.893 v 4.147 c 0,0.57 0.135,1.022 0.403,1.345 0.266,0.322 0.633,0.478 1.12,0.478 0.429,0 0.754,-0.14 0.993,-0.427 0.241,-0.289 0.363,-0.687 0.363,-1.184 V -6.809 H 0.79 V -2.45 C 0.79,-1.409 0.524,-0.584 0,0" /></g><g
           transform="translate(156.2828,19.9823)"
           id="g168"><path
             id="path170"
             style="fill:#1595ff;fill-opacity:1;fill-rule:nonzero;stroke:none"
             d="m 0,0 c 0.215,0.149 0.519,0.225 0.901,0.225 0.456,0 0.94,-0.091 1.437,-0.272 V -0.784 C 1.927,-1.167 1.378,-1.36 0.705,-1.36 c -0.328,0 -0.582,0.072 -0.757,0.216 -0.172,0.141 -0.256,0.32 -0.256,0.547 0,0.258 0.101,0.453 0.308,0.597 m 3.359,4.083 v 0 C 2.786,4.573 1.993,4.821 1.004,4.821 0.375,4.821 -0.214,4.683 -0.747,4.413 -1.239,4.163 -1.724,3.749 -2.03,3.208 L -2.012,3.185 -0.8,2.025 c 0.499,0.795 1.054,1.072 1.789,1.072 0.396,0 0.724,-0.106 0.977,-0.316 0.25,-0.207 0.372,-0.47 0.372,-0.805 V 1.61 C 1.869,1.753 1.401,1.825 0.945,1.825 0.004,1.825 -0.762,1.604 -1.331,1.167 -1.907,0.725 -2.2,0.092 -2.2,-0.714 c 0,-0.707 0.247,-1.28 0.734,-1.707 0.492,-0.411 1.107,-0.621 1.827,-0.621 0.721,0 1.395,0.291 2.006,0.788 V -2.873 H 4.23 V 1.96 c 0,0.916 -0.292,1.63 -0.871,2.123" /></g><g
           transform="translate(170.7779,26.0155)"
           id="g172"><path
             id="path174"
             style="fill:#1595ff;fill-opacity:1;fill-rule:nonzero;stroke:none"
             d="m 0,0 c -1.965,0 -3.564,-1.599 -3.564,-3.563 0,-1.966 1.599,-3.565 3.564,-3.565 1.965,0 3.563,1.599 3.563,3.565 C 3.563,-1.599 1.965,0 0,0 m 0,-9.067 c -3.035,0 -5.504,2.468 -5.504,5.504 0,3.034 2.469,5.502 5.504,5.502 3.034,0 5.503,-2.468 5.503,-5.502 0,-3.036 -2.469,-5.504 -5.503,-5.504" /></g><g
           transform="translate(218.6559,18.5868)"
           id="g176"><path
             id="path178"
             style="fill:#ff00aa;fill-opacity:1;fill-rule:nonzero;stroke:none"
             d="m 0,0 c -0.066,0 -0.082,0.065 -0.132,0.065 -0.032,0 -0.065,-0.033 -0.114,-0.082 l -0.099,-0.115 c -0.164,-0.147 -0.311,-0.114 -0.377,-0.245 l -0.131,-0.082 -0.115,-0.115 -0.131,-0.099 c -0.065,-0.032 -0.131,-0.049 -0.18,-0.049 -0.033,0 -0.066,0 -0.116,0.017 l -0.032,0.082 c 0,0.181 0.049,0.278 0.164,0.328 l -0.016,0.18 C -1.148,0 -1.017,0.131 -0.886,0.262 l 0.049,0.18 h 0.066 c 0.098,0 0.148,0.034 0.197,0.131 l 0.082,0.149 0.246,0.097 c 0.082,0.148 0.18,0.28 0.311,0.378 0.197,0.163 0.344,0.279 0.476,0.361 L 0.639,1.591 C 0.688,1.722 0.803,1.836 0.967,1.983 L 1.229,2.197 C 1.426,2.427 1.59,2.591 1.672,2.673 L 1.819,2.705 V 2.82 L 2.41,3.263 2.623,3.394 C 2.672,3.46 2.738,3.509 2.82,3.542 L 2.951,3.689 3.05,3.755 C 3.147,3.902 3.263,3.984 3.427,4.05 l 0.082,0.033 0.065,0.114 c 0.295,0.23 0.558,0.394 0.771,0.541 L 4.558,4.87 c 0.115,0.066 0.197,0.098 0.262,0.098 0.099,0 0.148,0.082 0.213,0.082 0.05,0 0.132,-0.017 0.213,-0.017 C 5.443,5.033 5.624,4.87 5.624,4.82 5.624,4.804 5.607,4.788 5.591,4.738 5.624,4.706 5.656,4.706 5.656,4.673 5.656,4.607 5.492,4.246 4.968,3.968 L 4.853,3.837 C 4.853,3.738 4.607,3.574 4.181,3.197 L 4.05,3.115 3.935,2.968 3.787,2.837 3.623,2.656 3.476,2.574 3.427,2.476 3.197,2.246 3.033,2.065 2.869,2 C 2.738,1.82 2.558,1.591 2.312,1.312 L 2.033,1.065 1.787,0.819 C 1.754,0.705 1.705,0.64 1.623,0.558 L 1.524,0.262 C 1.558,0.246 1.59,0.246 1.59,0.246 c 0.033,0 0.082,0.016 0.132,0.032 l 0.179,0.132 0.164,0.049 0.099,0.082 0.148,0.181 0.082,0.032 0.13,0.017 c 0.034,0.147 0.099,0.147 0.23,0.212 l 0.05,0.116 0.179,0.13 C 3.181,1.41 3.41,1.591 3.688,1.787 l 0.263,0.295 0.345,0.295 c 0.163,0.197 0.409,0.296 0.721,0.296 0.148,0 0.311,-0.164 0.311,-0.444 V 2.197 L 5.279,2.065 5.296,1.983 5.279,1.574 5.246,1.427 5.296,1.312 5.312,1.082 C 5.41,0.737 5.607,0.558 5.919,0.558 c 0.164,0 0.59,0.327 0.59,0.442 0,0.033 0.164,0.082 0.459,0.213 l 0.18,0.214 c 0.131,0.015 0.213,0.049 0.28,0.147 l 0.097,0.082 c 0.066,0.016 0.099,0.016 0.116,0.016 0.098,0 0.164,-0.049 0.179,-0.148 V 1.476 C 7.82,1.394 7.788,1.328 7.723,1.246 7.607,1.033 7.477,0.869 7.264,0.705 L 7.214,0.524 7.034,0.491 C 6.952,0.278 6.837,0.18 6.641,0.114 6.542,-0.05 6.395,-0.147 6.264,-0.181 6.001,-0.524 5.706,-0.673 5.328,-0.673 4.574,-0.673 4,-0.213 4,0.722 4,0.754 4,0.869 4.017,1.049 3.918,1.017 3.836,0.951 3.771,0.869 L 3.623,0.722 3.345,0.558 3.147,0.36 C 3.065,0.278 3.017,0.229 2.968,0.229 c -0.017,0 -0.066,0 -0.115,0.017 V 0.229 c 0,-0.294 -0.64,-0.902 -1.525,-1.294 C 1.082,-1.229 0.868,-1.312 0.672,-1.312 0.426,-1.312 0,-1 0,-0.688 c 0,0.212 0.098,0.459 0.229,0.72 L 0.394,0.394 C 0.114,0.312 0.114,0 0,0" /></g><g
           transform="translate(225.5748,20.0291)"
           id="g180"><path
             id="path182"
             style="fill:#ff00aa;fill-opacity:1;fill-rule:nonzero;stroke:none"
             d="M 0,0 C 1.263,1.427 1.935,2.263 2.246,2.361 L 2.41,2.41 2.591,2.525 2.771,2.591 2.886,2.559 3.001,2.542 C 3.313,2.313 3.427,2.148 3.427,1.936 3.427,1.82 3.411,1.689 3.361,1.525 L 3.329,1.246 C 3.279,1.033 3.23,0.854 3.181,0.705 L 3.066,0.541 V 0.394 C 2.886,0 2.755,-0.394 2.64,-0.737 L 2.558,-0.803 c 0.016,-0.05 0.033,-0.082 0.033,-0.132 0,-0.147 -0.148,-0.179 -0.148,-0.343 v -0.066 l 0.344,0.312 c 0.132,0.213 0.312,0.409 0.526,0.606 l 0.114,0.049 0.05,0.082 0.015,0.099 c 0.05,0.098 0.099,0.18 0.197,0.246 L 3.936,0.197 4.05,0.378 c 0.541,0.524 0.984,0.803 1.443,0.803 0.295,0 0.492,-0.098 0.558,-0.295 L 6.198,0.722 C 6.312,0.46 6.444,0.197 6.575,-0.098 l -0.049,-0.18 c 0.23,-0.148 0.213,-0.575 0.508,-0.575 0.066,0 0.132,0.017 0.23,0.05 l 0.065,0.032 0.067,0.116 0.196,0.147 0.131,0.131 c 0.541,0.132 0.82,0.606 1.131,0.606 0.115,0 0.148,-0.048 0.148,-0.163 0,-0.016 -0.049,-0.115 -0.082,-0.279 L 8.805,-0.344 C 8.51,-0.705 8.166,-1.065 7.788,-1.426 L 7.707,-1.508 7.575,-1.59 C 7.526,-1.771 7.428,-1.804 7.247,-1.901 L 7.133,-2.017 6.805,-2.147 c -0.131,-0.066 -0.23,-0.099 -0.312,-0.099 -0.345,0 -0.754,0.345 -1.016,0.983 L 5.46,-1.099 c -0.196,0.164 -0.377,0.362 -0.541,0.591 -0.065,0.032 -0.131,0.049 -0.181,0.049 -0.147,0 -0.343,-0.164 -0.655,-0.426 L 3.936,-0.935 3.804,-1.114 C 3.689,-1.263 3.559,-1.36 3.395,-1.41 L 3.165,-1.754 C 2.64,-2.345 2.279,-2.738 2.033,-2.951 1.787,-3.279 1.574,-3.394 1.147,-3.394 c -0.196,0 -0.261,0.033 -0.311,0.247 l 0.017,0.229 -0.049,0.082 0.032,0.148 c 0.296,1 0.443,1.541 0.443,1.639 0,0.017 0.049,0.082 0.098,0.23 l 0.082,0.131 c -0.032,0.065 -0.032,0.098 -0.032,0.115 0,0.164 0.18,0.409 0.18,0.688 0,0.049 -0.066,0.082 -0.148,0.082 -0.426,0 -0.475,-0.377 -0.672,-0.492 L 0.591,-0.558 0.41,-0.721 0.295,-0.754 0.246,-0.803 0.197,-0.885 0.131,-0.983 C 0.05,-1.017 0,-1.049 -0.017,-1.099 l -0.147,-0.13 c -0.771,-0.607 -1.23,-0.918 -1.36,-0.918 -0.099,0 -0.164,0.065 -0.164,0.164 0,0.114 0.065,0.196 0.212,0.278 v 0.147 c 0.541,0.657 0.902,0.952 0.952,0.952 0,0.016 -0.017,0.048 -0.017,0.048 0,0.034 0.017,0.034 0.049,0.034 h 0.016 c 0.05,0 0.082,0.048 0.099,0.164 l 0.115,0.098 0.163,0.148 z" /></g><g
           transform="translate(236.0201,19.3573)"
           id="g184"><path
             id="path186"
             style="fill:#ff00aa;fill-opacity:1;fill-rule:nonzero;stroke:none"
             d="M 0,0 C 0.327,0.328 0.557,0.64 0.705,0.853 L 0.819,0.901 0.918,1.082 C 1.246,1.509 1.442,1.935 1.672,2.246 1.688,2.558 1.705,2.837 1.771,3.099 L 1.606,3.082 1.541,2.935 1.442,2.804 C 1.295,2.64 1.164,2.509 1.065,2.394 L 0.983,2.328 0.853,2.263 0.836,2.148 C 0.721,2 0.508,1.705 0.147,1.263 0.032,1.164 -0.05,1.033 -0.082,0.886 -0.197,0.787 -0.279,0.672 -0.328,0.524 -0.443,0.442 -0.509,0.328 -0.558,0.213 -0.574,0.065 -0.64,-0.033 -0.738,-0.115 c -0.033,-0.098 -0.099,-0.213 -0.181,-0.344 -0.049,-0.132 -0.147,-0.246 -0.147,-0.427 0.065,-0.032 0.115,-0.049 0.13,-0.049 0.067,0 0.149,0.082 0.247,0.23 l 0.147,0.099 c 0.197,0.229 0.263,0.409 0.41,0.409 h 0.017 z m 4.46,-0.017 0.18,0.116 c 0.098,0.13 0.18,0.179 0.262,0.179 l 0.377,0.164 0.198,0.214 c 0.097,0.016 0.163,0.032 0.229,0.115 0.082,0.082 0.163,0.13 0.245,0.13 0.017,0 0.067,0 0.115,-0.015 C 6.115,0.836 6.132,0.804 6.132,0.754 6.132,0.722 6.1,0.623 6.05,0.459 L 5.854,0.181 5.591,-0.065 C 5.574,-0.229 5.509,-0.279 5.328,-0.295 5.263,-0.524 5.148,-0.623 4.919,-0.672 L 4.854,-0.754 4.722,-0.82 C 4.64,-0.902 4.541,-0.951 4.427,-0.968 4.328,-1.033 4.246,-1.082 4.181,-1.164 4.033,-1.181 3.918,-1.213 3.804,-1.279 L 3.688,-1.312 3.541,-1.295 c -0.099,-0.017 -0.18,-0.017 -0.213,-0.017 -0.229,0 -0.492,0.099 -0.836,0.295 l -0.05,0.082 c -0.097,0.066 -0.179,0.164 -0.246,0.263 l -0.032,0.114 -0.049,0.049 c -0.082,0.115 -0.148,0.23 -0.197,0.362 0.017,0.048 0.033,0.082 0.033,0.114 0,0.066 -0.033,0.115 -0.115,0.164 C 1.819,0.312 1.787,0.41 1.722,0.492 L 1.688,0.688 1.606,0.869 C 1.492,0.754 1.426,0.64 1.36,0.558 1.262,0.492 1.196,0.41 1.147,0.278 1,0.213 0.935,0.131 0.918,-0.017 L 0.868,-0.131 C 0.771,-0.246 0.639,-0.377 0.508,-0.541 L 0.312,-0.656 0.229,-0.82 C 0.065,-1.033 -0.132,-1.295 -0.443,-1.606 L -0.705,-1.771 -0.869,-1.935 C -1.017,-2.033 -1.148,-2.147 -1.263,-2.296 L -1.46,-2.378 h -0.114 c -0.017,0 -0.099,0 -0.214,-0.016 H -1.919 C -1.984,-2.41 -2.05,-2.427 -2.1,-2.427 c -0.114,0 -0.245,0.099 -0.311,0.28 l -0.016,0.081 -0.033,0.049 -0.017,0.099 -0.032,0.065 c 0,0.41 0.114,0.803 0.295,1.247 l 0.066,0.278 c -0.181,-0.131 -0.345,-0.263 -0.508,-0.41 L -2.837,-0.82 c -0.065,-0.115 -0.164,-0.163 -0.311,-0.197 -0.394,-0.295 -0.607,-0.459 -0.722,-0.459 -0.066,0 -0.099,0.033 -0.148,0.115 l 0.033,0.132 c 0.049,0.097 0.098,0.147 0.18,0.164 l -0.016,0.179 c 0.05,0.099 0.132,0.164 0.246,0.23 0.098,0.132 0.214,0.246 0.377,0.361 0.066,0.196 0.148,0.295 0.344,0.328 l 0.066,0.163 0.132,0.05 c 0.015,0.099 0.082,0.164 0.213,0.213 0.016,0 0.048,-0.017 0.065,-0.017 0.049,0 0.082,0.05 0.099,0.132 0.164,0.164 0.343,0.327 0.59,0.525 0.212,0.065 0.311,0.114 0.311,0.246 v 0.032 c 0.033,0.033 0.246,0.229 0.64,0.607 l 0.082,0.098 0.246,0.197 0.278,0.262 c 0.197,0.23 0.541,0.541 1.05,0.951 0.131,0.115 0.36,0.296 0.688,0.541 0.148,0.067 0.263,0.115 0.377,0.115 0.099,0.263 0.164,0.525 0.213,0.754 l 0.082,0.099 c 0.198,0.688 0.444,1.345 0.739,1.968 l 0.114,0.098 v 0.066 c 0,0.164 0.066,0.295 0.164,0.393 0.066,0.082 0.132,0.148 0.164,0.262 l 0.147,0.164 0.05,0.23 c 0.082,0.18 0.213,0.393 0.443,0.639 L 4.246,9.019 4.41,9.116 4.476,9.067 4.558,9.133 C 4.656,9.116 4.755,9.101 4.854,9.067 L 4.919,8.937 4.869,8.854 4.935,8.772 V 8.707 C 4.935,8.493 4.869,8.313 4.804,8.1 L 4.82,7.936 C 4.787,7.69 4.722,7.493 4.591,7.312 L 4.607,7.182 C 4.574,6.969 4.509,6.756 4.41,6.575 L 4.328,6.493 4.345,6.428 4.312,6.329 4.296,6.214 C 4.197,6.133 4.147,6.034 4.147,5.919 4.147,5.87 4.164,5.837 4.164,5.788 4.115,5.493 4,5.247 3.836,4.984 3.771,4.936 3.722,4.887 3.722,4.82 3.722,4.788 3.738,4.771 3.738,4.738 3.688,4.574 3.606,4.411 3.509,4.247 3.41,4.23 3.377,4.214 3.377,4.181 3.377,4.165 3.394,4.115 3.427,4.033 3.377,3.886 3.263,3.607 3.065,3.23 L 2.983,3.05 C 2.918,2.853 2.886,2.656 2.886,2.46 V 2.345 L 2.836,2.164 2.886,1.984 C 2.886,1.591 2.935,1.197 3.033,0.787 3.017,0.738 3,0.705 3,0.688 3,0.64 3.033,0.606 3.099,0.574 L 3.213,0.328 C 3.295,0.246 3.345,0.147 3.377,0.049 c 0.132,-0.082 0.263,-0.131 0.41,-0.18 0.099,-0.016 0.181,-0.033 0.263,-0.033 0.049,0 0.097,0.033 0.164,0.049 z" /></g><g
           transform="translate(277.4205,16.5164)"
           id="g188"><path
             id="path190"
             style="fill:#1595ff;fill-opacity:1;fill-rule:nonzero;stroke:none"
             d="m 0,0 c -1.241,-2.131 -2.917,-1.471 -3.47,0.426 l -1.518,10.938 2.383,-0.293 1.152,-8.585 3.183,8.053 2.384,-0.293 z m -6.546,9.364 -3.897,0.479 -0.345,-2.811 2.383,-0.293 -0.266,-2.163 -2.383,0.293 -0.344,-2.809 3.898,-0.479 -0.266,-2.163 -4.548,0.559 c -0.82,0.079 -1.419,0.807 -1.339,1.626 l 1.124,9.152 c 0.08,0.817 0.809,1.416 1.627,1.336 l 4.623,-0.568 z m -8.16,-5.581 C -14.875,2.407 -15.98,0.427 -18.668,0.761 l -3.395,0.417 1.487,12.103 3.466,-0.426 c 2.591,-0.318 3.208,-2.506 3.04,-3.883 l -0.637,-5.189 z m 20.607,16.715 -26.348,3.235 c -1.77,0.217 -3.383,-1.039 -3.605,-2.809 l -3.237,-26.363 c -0.213,-1.772 1.048,-3.381 2.818,-3.599 l 26.349,-3.235 c 1.77,-0.217 3.383,1.04 3.604,2.81 L 8.72,16.899 C 8.933,18.671 7.672,20.28 5.901,20.498 M -16.455,10.153 c -0.258,0.247 -0.529,0.388 -0.813,0.423 l -1.276,0.156 -0.938,-7.641 1.276,-0.157 c 0.284,-0.035 0.582,0.036 0.892,0.213 0.309,0.178 0.491,0.479 0.543,0.904 l 0.625,5.095 c 0.051,0.423 -0.052,0.76 -0.309,1.007" /></g></g></g><g
       transform="translate(130.6022,78.6825)"
       id="g192"><path
         id="path194"
         style="fill:#ff00aa;fill-opacity:1;fill-rule:nonzero;stroke:none"
         d="M 0,0 H -5.838 V 4.378 L -16.053,-5.838 h 4.378 v -26.267 l 2.919,-2.919 2.918,2.919 4.378,4.377 -1.459,1.46 -2.919,-2.919 v 23.35 z" /></g><g
       transform="translate(225.901,83.0604)"
       id="g196"><path
         id="path198"
         style="fill:#ff00aa;fill-opacity:1;fill-rule:nonzero;stroke:none"
         d="M 0,0 V 0 5.838 L -5.838,0 v -5.837 l -4.378,-4.379 h 4.378 v -26.267 l 2.919,-2.919 2.919,2.919 v 26.268 l 5.837,5.837 H 0 Z" /></g><g
       transform="translate(234.6568,88.8983)"
       id="g200"><path
         id="path202"
         style="fill:#ff00aa;fill-opacity:1;fill-rule:nonzero;stroke:none"
         d="M 0,0 -4.378,4.378 -8.756,0 -4.378,-4.379 Z" /></g><g
       transform="translate(160.7477,74.3046)"
       id="g204"><path
         id="path206"
         style="fill:#ff00aa;fill-opacity:1;fill-rule:nonzero;stroke:none"
         d="m 0,0 v 4.378 7.297 l -4.378,4.378 -4.378,-4.378 2.919,-2.919 V -24.809 L 0,-30.646 4.378,-26.268 0,-21.89 Z" /></g><g
       transform="translate(160.7477,74.3046)"
       id="g208"><path
         id="path210"
         style="fill:#ff00aa;fill-opacity:1;fill-rule:nonzero;stroke:none"
         d="m 0,0 4.378,-4.378 v -21.89 l 5.837,5.837 V -1.459 L 4.378,4.378 Z" /></g><g
       transform="translate(44.9401,49.7918)"
       id="g212"><path
         id="path214"
         style="fill:#ff00aa;fill-opacity:1;fill-rule:nonzero;stroke:none"
         d="m 0,0 -3.066,3.066 v 4.601 23 6.133 1.534 l -4.6,4.6 -4.601,-4.6 3.068,-3.067 v -7.629 l -7.629,-7.629 v 10.658 7.667 l -4.601,4.6 -0.018,-0.019 -0.019,0.019 -9.2,-9.201 1.571,-1.571 4.6,4.601 1.533,-1.534 V -3.066 l 3.066,-3.068 3.068,3.068 v 16.467 l 7.629,7.629 V 7.667 0 L -3.066,-6.134 0,-3.066 1.534,-1.533 4.601,1.533 3.067,3.066 Z" /></g><g
       transform="translate(278.403,49.4959)"
       id="g216"><path
         id="path218"
         style="fill:#ff00aa;fill-opacity:1;fill-rule:nonzero;stroke:none"
         d="m 0,0 v 23.35 l 5.838,5.837 H 0 v 4.377 L -10.215,23.349 h 4.378 V -2.919 L -2.918,-5.838 0,-2.919 4.378,1.459 2.919,2.919 Z" /></g><g
       transform="translate(138.8658,74.3046)"
       id="g220"><path
         id="path222"
         style="fill:#ff00aa;fill-opacity:1;fill-rule:nonzero;stroke:none"
         d="M 0,0 -5.837,-5.837 V -24.809 L 0,-30.646 4.378,-26.268 0,-21.89 Z" /></g><g
       transform="translate(138.8658,74.3046)"
       id="g224"><path
         id="path226"
         style="fill:#ff00aa;fill-opacity:1;fill-rule:nonzero;stroke:none"
         d="m 0,0 4.378,-4.378 v -21.89 l 5.838,5.837 V -1.459 L 4.378,4.378 Z" /></g><g
       transform="translate(192.317,72.8807)"
       id="g228"><path
         id="path230"
         style="fill:#ff00aa;fill-opacity:1;fill-rule:nonzero;stroke:none"
         d="M 0,0 -5.802,5.802 -10.18,1.424 -5.838,-2.918 -10.18,-7.26 v 8.684 l -5.837,-5.837 v -18.972 l 5.837,-5.838 2.919,2.919 1.459,1.46 4.378,4.378 -1.459,1.459 -4.378,-4.378 -2.919,2.919 v 10.287 z" /></g><g
       transform="translate(59.0836,74.3046)"
       id="g232"><path
         id="path234"
         style="fill:#ff00aa;fill-opacity:1;fill-rule:nonzero;stroke:none"
         d="M 0,0 -5.837,-5.837 V -24.809 L 0,-30.646 4.378,-26.268 0,-21.89 Z" /></g><g
       transform="translate(69.2994,72.8456)"
       id="g236"><path
         id="path238"
         style="fill:#ff00aa;fill-opacity:1;fill-rule:nonzero;stroke:none"
         d="m 0,0 -5.838,5.837 -4.378,-4.378 4.378,-4.378 v -21.89 l 4.378,-4.379 4.378,4.379 L 0,-21.891 Z" /></g><g
       transform="translate(84.8961,49.4959)"
       id="g240"><path
         id="path242"
         style="fill:#ff00aa;fill-opacity:1;fill-rule:nonzero;stroke:none"
         d="m 0,0 -2.919,2.919 v 21.89 L -8.757,18.972 V 0 L -2.919,-5.838 0,-2.919 1.459,-1.459 5.837,2.919 4.378,4.378 Z" /></g><g
       transform="translate(81.9772,74.3456)"
       id="g244"><path
         id="path246"
         style="fill:#ff00aa;fill-opacity:1;fill-rule:nonzero;stroke:none"
         d="M 0,0 4.378,-4.378 8.756,0 4.378,4.378 Z" /></g><g
       transform="translate(105.8014,78.6825)"
       id="g248"><path
         id="path250"
         style="fill:#ff00aa;fill-opacity:1;fill-rule:nonzero;stroke:none"
         d="M 0,0 -4.378,-4.378 0,-8.756 4.378,-4.378 Z" /></g><g
       transform="translate(104.3424,62.6297)"
       id="g252"><path
         id="path254"
         style="fill:#ff00aa;fill-opacity:1;fill-rule:nonzero;stroke:none"
         d="m 0,0 v -16.053 l 2.919,-2.919 2.918,2.919 V 2.919 L 1.459,7.297 -2.919,2.919 Z" /></g><g
       transform="translate(101.4235,78.6825)"
       id="g256"><path
         id="path258"
         style="fill:#ff00aa;fill-opacity:1;fill-rule:nonzero;stroke:none"
         d="m 0,0 v 7.297 l -4.378,4.378 -4.378,-4.378 2.919,-2.919 v -36.483 l 2.919,-2.919 2.918,2.919 v 18.971 8.756 z" /></g><g
       transform="translate(239.5016,74.3046)"
       id="g260"><path
         id="path262"
         style="fill:#ff00aa;fill-opacity:1;fill-rule:nonzero;stroke:none"
         d="M 0,0 4.342,-4.342 0,-8.684 V 0 L -5.837,-5.837 V -24.809 L 0,-30.646 l 2.919,2.918 1.459,1.46 4.378,4.378 -1.459,1.459 L 2.919,-24.809 0,-21.89 v 10.287 L 10.18,-1.424 4.378,4.378 Z" /></g><g
       transform="translate(204.0191,74.3046)"
       id="g264"><path
         id="path266"
         style="fill:#ff00aa;fill-opacity:1;fill-rule:nonzero;stroke:none"
         d="M 0,0 4.378,-4.378 8.756,0 4.378,4.378 Z" /></g><g
       transform="translate(195.2633,74.3046)"
       id="g268"><path
         id="path270"
         style="fill:#ff00aa;fill-opacity:1;fill-rule:nonzero;stroke:none"
         d="m 0,0 2.918,-2.919 v -4.378 -4.378 -16.053 l 2.919,-2.918 2.919,2.918 V -11.675 -7.297 0 L 4.378,4.378 Z" /></g><g
       transform="translate(253.5943,48.037)"
       id="g272"><path
         id="path274"
         style="fill:#ff00aa;fill-opacity:1;fill-rule:nonzero;stroke:none"
         d="M 0,0 4.378,-4.379 8.756,0 4.378,4.378 Z" /></g><g
       transform="translate(266.7281,74.3046)"
       id="g276"><path
         id="path278"
         style="fill:#ff00aa;fill-opacity:1;fill-rule:nonzero;stroke:none"
         d="M 0,0 -4.378,4.378 -8.756,0 -4.378,-4.378 Z" /></g><g
       transform="translate(253.5943,69.9266)"
       id="g280"><path
         id="path282"
         style="fill:#ff00aa;fill-opacity:1;fill-rule:nonzero;stroke:none"
         d="m 0,0 v -5.838 l 8.756,-8.756 v -7.296 l 4.378,4.378 v 7.296 l -0.73,0.731 -3.648,3.647 -4.378,4.379 v 5.837 z" /></g></g></svg>